<?xml version="1.0" encoding="UTF-8"?>
<svg width="773px" height="135px" viewBox="0 0 773 135" version="1.1" xmlns="http://www.w3.org/2000/svg" xmlns:xlink="http://www.w3.org/1999/xlink">
    <title>Group</title>
    <g id="wireframe" stroke="none" stroke-width="1" fill="none" fill-rule="evenodd">
        <g id="Desktop-HD" transform="translate(-464.000000, -485.000000)" fill="#FFFFFF" fill-rule="nonzero">
            <g id="Group" transform="translate(464.007072, 485.072000)">
                <path d="M41.767263,107.049982 C65.5288582,107.049982 78.6047656,91.128759 78.6047656,75.4893273 C78.6047656,61.2588534 68.7626848,49.0009204 49.7815288,45.4785259 L36.4244191,42.9424019 C29.5349625,41.6743398 26.5823382,38.1519453 26.5823382,33.3614887 C26.5823382,27.8665533 31.9251821,22.6534094 40.2206503,22.6534094 C52.3123496,22.6534094 56.1085808,30.5435731 56.8115866,35.1931339 L76.7769506,29.5573026 C74.6679333,17.8629528 65.2476559,2.928 40.3612514,2.928 C21.2394943,2.928 4.64855803,16.1722034 4.64855803,35.0522381 C4.64855803,49.8462951 14.9124424,61.1179576 31.784581,64.3585606 L45.422893,66.8946847 C52.0311473,68.1627467 56.1085808,71.826037 56.1085808,76.8982851 C56.1085808,83.0976995 50.7657369,87.3245729 42.0484653,87.3245729 C28.4101532,87.3245729 22.2237024,79.2935134 21.3800955,70.1352876 L0.992928,75.06664 C2.39893955,89.1562181 14.2094366,107.049982 41.767263,107.049982 Z M115.096343,131.706744 L115.096343,99.4416101 C118.330169,103.386692 125.079025,106.486399 134.077499,106.486399 C153.621059,106.486399 167.399972,91.128759 167.399972,69.7126003 C167.399972,48.7191289 155.167672,33.220593 134.921105,33.220593 C124.938423,33.220593 117.345961,37.5883622 114.393337,42.0970272 L114.393337,34.9113423 L93.724967,34.9113423 L93.724967,131.706744 L115.096343,131.706744 Z M130.56247,87.3245729 C122.267001,87.3245729 114.81514,81.4069501 114.81514,69.8534961 C114.81514,58.1591462 122.267001,52.523315 130.56247,52.523315 C138.998539,52.523315 146.4504,58.1591462 146.4504,69.8534961 C146.4504,81.5478459 138.998539,87.3245729 130.56247,87.3245729 Z M205.016358,104.936546 L205.016358,74.3621611 C205.016358,60.4134787 212.749422,55.3412306 221.326092,55.3412306 C223.43511,55.3412306 225.684728,55.4821264 228.074948,56.0457095 L228.074948,34.9113423 C226.668936,34.488655 224.559919,34.2068634 222.450902,34.2068634 C216.826855,34.2068634 207.968983,36.4611959 204.313353,44.3513597 L204.313353,34.9113423 L183.644983,34.9113423 L183.644983,104.936546 L205.016358,104.936546 Z M264.847727,104.936546 L264.847727,34.9113423 L243.476352,34.9113423 L243.476352,104.936546 L264.847727,104.936546 Z M307.385154,104.936546 L307.385154,64.7812479 C307.385154,57.7364589 311.884391,52.523315 318.914448,52.523315 C326.647512,52.523315 330.303142,57.7364589 330.303142,64.6403522 L330.303142,104.936546 L351.674518,104.936546 L351.674518,60.9770618 C351.674518,45.6194217 343.800853,33.0796972 326.225709,33.0796972 C319.05505,33.0796972 310.478379,36.3203001 306.682148,42.9424019 L306.682148,34.9113423 L286.013778,34.9113423 L286.013778,104.936546 L307.385154,104.936546 Z M402.085609,133.820181 C428.237424,133.820181 439.485516,116.349104 439.485516,96.2010071 L439.485516,34.9113423 L419.098349,34.9113423 L419.098349,42.3788187 C417.129932,38.7155284 411.084083,33.6432803 399.695389,33.6432803 C380.573632,33.6432803 367.216522,49.4236078 367.216522,67.8809551 C367.216522,87.3245729 381.136037,101.977734 399.695389,101.977734 C409.818672,101.977734 415.864522,97.8917565 418.395343,94.0875704 L418.395343,97.3281734 C418.395343,110.008794 411.787089,115.221938 401.101401,115.221938 C393.087135,115.221938 387.463089,110.290585 386.057077,103.527588 L367.216522,108.881627 C369.184939,121.421352 381.979644,133.820181 402.085609,133.820181 Z M403.632222,83.3794911 C395.055551,83.3794911 388.587898,77.4618682 388.587898,67.8809551 C388.587898,58.300042 395.617956,52.3824192 403.632222,52.3824192 C411.646487,52.3824192 418.535944,58.300042 418.535944,67.8809551 C418.535944,77.4618682 412.349493,83.3794911 403.632222,83.3794911 Z M529.509504,102.814563 L529.509504,65.4771813 L566.347007,65.4771813 L566.347007,45.1881888 L529.368903,45.1881888 L529.368903,24.0538216 L571.408649,24.0538216 L571.408649,2.91945442 L507.153921,2.91945442 L507.153921,102.814563 L529.509504,102.814563 Z M615.070885,104.928 C632.78663,104.928 643.894121,94.7835038 647.268549,82.6664666 L629.412202,77.5942185 C627.443786,83.0891539 623.08515,86.7524442 615.352087,86.7524442 C607.056619,86.7524442 599.88596,81.116613 599.464156,73.2264492 L648.112156,73.2264492 C648.252757,72.8037619 648.533959,69.5631589 648.533959,66.6043475 C648.533959,44.0610225 635.17685,30.6759233 613.524272,30.6759233 C595.386723,30.6759233 578.655185,45.047293 578.655185,67.590618 C578.655185,91.1202134 595.808526,104.928 615.070885,104.928 Z M627.86559,59.4186627 L599.88596,59.4186627 C600.307763,54.2055188 604.807,47.5834171 613.805474,47.5834171 C623.928757,47.5834171 627.584387,54.064623 627.86559,59.4186627 Z M688.540565,104.928 C707.240519,104.928 716.379594,93.2336502 716.379594,81.2575088 C716.379594,70.9721167 709.349536,62.2365783 694.867617,59.2777669 L685.587941,57.4461217 C682.494716,56.8825386 680.104496,55.1917892 680.104496,52.2329778 C680.104496,48.5696875 683.619525,46.1744592 687.696958,46.1744592 C694.164611,46.1744592 697.117236,50.1195411 697.67964,54.7691019 L715.395386,51.5284989 C714.69238,43.3565436 707.662322,30.6759233 687.415756,30.6759233 C671.809028,30.6759233 660.560935,41.1022111 660.560935,53.9237272 C660.560935,63.7864319 666.466184,72.2401788 681.369906,75.4807817 L689.384172,77.3124269 C694.586415,78.4395931 696.273629,80.5530299 696.273629,83.0891539 C696.273629,86.1888611 693.602207,89.1476725 688.118762,89.1476725 C680.807502,89.1476725 677.433074,84.4981117 677.151872,79.7076552 L659.014323,82.9482581 C659.576727,90.6975261 666.606785,104.928 688.540565,104.928 Z M760.604234,104.082625 C767.35309,104.082625 770.868119,102.532772 771.711726,102.110084 L771.711726,84.3572159 C770.446315,84.6390075 768.337298,85.0616949 766.087679,85.0616949 C761.447841,85.0616949 758.354616,83.5118413 758.354616,77.7351142 L758.354616,51.5284989 L771.992928,51.5284989 L771.992928,32.78936 L758.354616,32.78936 L758.354616,12.3594718 L739.232859,12.3594718 L739.232859,21.3768018 C739.232859,27.8580077 735.71783,32.78936 728.40657,32.78936 L724.891541,32.78936 L724.891541,51.5284989 L737.264443,51.5284989 L737.264443,81.5393003 C737.264443,95.4879827 746.122315,104.082625 760.604234,104.082625 Z" id="SpringFest"></path>
                <path d="M254.352479,25.928 C261.37495,25.928 266.992928,20.3100225 266.992928,13.428 C266.992928,6.54597753 261.37495,0.928 254.352479,0.928 C247.610906,0.928 241.992928,6.54597753 241.992928,13.428 C241.992928,20.3100225 247.610906,25.928 254.352479,25.928 Z" id="Path"></path>
            </g>
        </g>
    </g>
</svg>